<?xml version="1.0" standalone="no"?>
<svg xmlns:xlink="http://www.w3.org/1999/xlink" id="wave" style="transform:rotate(0deg); transition: 0.3s" viewBox="0 0 1440 220" version="1.1" xmlns="http://www.w3.org/2000/svg"><defs><linearGradient id="sw-gradient-0" x1="0" x2="0" y1="1" y2="0"><stop stop-color="rgba(1, 1, 32, 1)" offset="0%"/><stop stop-color="rgba(1, 1, 32, 1)" offset="100%"/></linearGradient></defs><path style="transform:translate(0, 0px); opacity:1" fill="url(#sw-gradient-0)" d="M0,154L480,110L960,154L1440,176L1920,44L2400,44L2880,88L3360,154L3840,22L4320,110L4800,154L5280,22L5760,22L6240,198L6720,44L7200,66L7680,132L8160,66L8640,88L9120,154L9600,132L10080,44L10560,0L11040,22L11520,176L11520,220L11040,220L10560,220L10080,220L9600,220L9120,220L8640,220L8160,220L7680,220L7200,220L6720,220L6240,220L5760,220L5280,220L4800,220L4320,220L3840,220L3360,220L2880,220L2400,220L1920,220L1440,220L960,220L480,220L0,220Z"/></svg>